<mxfile host="app.diagrams.net" modified="2024-02-29T14:20:41.023Z" agent="Mozilla/5.0 (Windows NT 10.0; Win64; x64) AppleWebKit/537.36 (KHTML, like Gecko) Chrome/122.0.0.0 Safari/537.36" etag="I63ZiRUyze9KA_boEXFn" version="23.1.8" type="github">
  <diagram id="C5RBs43oDa-KdzZeNtuy" name="Page-1">
    <mxGraphModel dx="2487" dy="868" grid="1" gridSize="10" guides="1" tooltips="1" connect="1" arrows="1" fold="1" page="1" pageScale="1" pageWidth="800" pageHeight="1000" math="0" shadow="0">
      <root>
        <mxCell id="WIyWlLk6GJQsqaUBKTNV-0" />
        <mxCell id="WIyWlLk6GJQsqaUBKTNV-1" parent="WIyWlLk6GJQsqaUBKTNV-0" />
        <mxCell id="8M8Ricd8YmC17zNcSAAh-8" value="" style="endArrow=classic;html=1;rounded=0;entryX=0.5;entryY=0;entryDx=0;entryDy=0;" parent="WIyWlLk6GJQsqaUBKTNV-1" edge="1" target="8M8Ricd8YmC17zNcSAAh-12">
          <mxGeometry width="50" height="50" relative="1" as="geometry">
            <mxPoint x="400" y="120" as="sourcePoint" />
            <mxPoint x="240" y="200" as="targetPoint" />
          </mxGeometry>
        </mxCell>
        <mxCell id="8M8Ricd8YmC17zNcSAAh-9" value="Home page." style="rounded=0;whiteSpace=wrap;html=1;" parent="WIyWlLk6GJQsqaUBKTNV-1" vertex="1">
          <mxGeometry x="340" y="40" width="120" height="80" as="geometry" />
        </mxCell>
        <mxCell id="8M8Ricd8YmC17zNcSAAh-12" value="Warrior Class Page" style="rounded=0;whiteSpace=wrap;html=1;" parent="WIyWlLk6GJQsqaUBKTNV-1" vertex="1">
          <mxGeometry x="340" y="200" width="120" height="40" as="geometry" />
        </mxCell>
        <mxCell id="8M8Ricd8YmC17zNcSAAh-13" value="" style="endArrow=classic;html=1;rounded=0;exitX=0.5;exitY=1;exitDx=0;exitDy=0;entryX=0.5;entryY=0;entryDx=0;entryDy=0;" parent="WIyWlLk6GJQsqaUBKTNV-1" source="8M8Ricd8YmC17zNcSAAh-12" target="8M8Ricd8YmC17zNcSAAh-14" edge="1">
          <mxGeometry width="50" height="50" relative="1" as="geometry">
            <mxPoint x="390" y="410" as="sourcePoint" />
            <mxPoint x="340" y="310" as="targetPoint" />
          </mxGeometry>
        </mxCell>
        <mxCell id="8M8Ricd8YmC17zNcSAAh-14" value="Cell One Page" style="rounded=0;whiteSpace=wrap;html=1;fillColor=#d5e8d4;strokeColor=#82b366;" parent="WIyWlLk6GJQsqaUBKTNV-1" vertex="1">
          <mxGeometry x="340" y="320" width="120" height="40" as="geometry" />
        </mxCell>
        <mxCell id="zFXSnFFcsLOcTapgdQPT-0" value="" style="endArrow=classic;html=1;rounded=0;exitX=0.5;exitY=1;exitDx=0;exitDy=0;" parent="WIyWlLk6GJQsqaUBKTNV-1" source="8M8Ricd8YmC17zNcSAAh-14" edge="1">
          <mxGeometry width="50" height="50" relative="1" as="geometry">
            <mxPoint x="370" y="410" as="sourcePoint" />
            <mxPoint x="400" y="480" as="targetPoint" />
          </mxGeometry>
        </mxCell>
        <mxCell id="zFXSnFFcsLOcTapgdQPT-1" value="&lt;h1&gt;Cell One:&lt;/h1&gt;&lt;p&gt;This will be a literal cell the player is trapped within with all options but one leading to the player&#39;s escape, with the exception being when the player yells for help out loud drawing the attention of the beast man that is wondering the large room with lots of stacked cells embedded in the walls.&lt;/p&gt;" style="text;html=1;spacing=5;spacingTop=-20;whiteSpace=wrap;overflow=hidden;rounded=0;" parent="WIyWlLk6GJQsqaUBKTNV-1" vertex="1">
          <mxGeometry x="460" y="320" width="300" height="140" as="geometry" />
        </mxCell>
        <mxCell id="zFXSnFFcsLOcTapgdQPT-2" value="Cell Room Page" style="rounded=0;whiteSpace=wrap;html=1;fillColor=#d5e8d4;strokeColor=#82b366;" parent="WIyWlLk6GJQsqaUBKTNV-1" vertex="1">
          <mxGeometry x="340" y="480" width="120" height="40" as="geometry" />
        </mxCell>
        <mxCell id="zFXSnFFcsLOcTapgdQPT-3" value="&lt;h1&gt;Cell Room:&lt;/h1&gt;&lt;p&gt;The cell room page will be the first main page where the player must pick a direction to start their journey.&lt;/p&gt;&lt;p&gt;the two options will be to fight the beast-man or to try an escape without notice.&lt;/p&gt;" style="text;html=1;spacing=5;spacingTop=-20;whiteSpace=wrap;overflow=hidden;rounded=0;" parent="WIyWlLk6GJQsqaUBKTNV-1" vertex="1">
          <mxGeometry x="460" y="480" width="300" height="120" as="geometry" />
        </mxCell>
        <mxCell id="zFXSnFFcsLOcTapgdQPT-5" value="" style="endArrow=classic;html=1;rounded=0;exitX=0.5;exitY=1;exitDx=0;exitDy=0;" parent="WIyWlLk6GJQsqaUBKTNV-1" source="zFXSnFFcsLOcTapgdQPT-2" edge="1">
          <mxGeometry width="50" height="50" relative="1" as="geometry">
            <mxPoint x="400" y="690" as="sourcePoint" />
            <mxPoint x="400" y="640" as="targetPoint" />
          </mxGeometry>
        </mxCell>
        <mxCell id="zFXSnFFcsLOcTapgdQPT-6" value="Hall Way One" style="rounded=0;whiteSpace=wrap;html=1;fillColor=#d5e8d4;strokeColor=#82b366;" parent="WIyWlLk6GJQsqaUBKTNV-1" vertex="1">
          <mxGeometry x="340" y="640" width="120" height="40" as="geometry" />
        </mxCell>
        <mxCell id="zFXSnFFcsLOcTapgdQPT-7" value="&lt;h1&gt;Hallway one&lt;/h1&gt;&lt;p&gt;The hallway will not contain anything of major interest for the player just a breather moment as the page describes the hallway and what is within it along with the prompt to continue down the hallway.&lt;/p&gt;" style="text;html=1;spacing=5;spacingTop=-20;whiteSpace=wrap;overflow=hidden;rounded=0;" parent="WIyWlLk6GJQsqaUBKTNV-1" vertex="1">
          <mxGeometry x="460" y="640" width="300" height="120" as="geometry" />
        </mxCell>
        <mxCell id="zFXSnFFcsLOcTapgdQPT-8" value="" style="endArrow=classic;html=1;rounded=0;exitX=0;exitY=0.5;exitDx=0;exitDy=0;entryX=1;entryY=0.5;entryDx=0;entryDy=0;" parent="WIyWlLk6GJQsqaUBKTNV-1" source="zFXSnFFcsLOcTapgdQPT-2" target="zFXSnFFcsLOcTapgdQPT-9" edge="1">
          <mxGeometry width="50" height="50" relative="1" as="geometry">
            <mxPoint x="200" y="540" as="sourcePoint" />
            <mxPoint x="240" y="500" as="targetPoint" />
          </mxGeometry>
        </mxCell>
        <mxCell id="zFXSnFFcsLOcTapgdQPT-9" value="Cell Room Second Floor" style="rounded=0;whiteSpace=wrap;html=1;fillColor=#f8cecc;strokeColor=#b85450;" parent="WIyWlLk6GJQsqaUBKTNV-1" vertex="1">
          <mxGeometry x="40" y="480" width="120" height="40" as="geometry" />
        </mxCell>
        <mxCell id="BrZVJdfoGeoX7WeHranQ-3" style="edgeStyle=orthogonalEdgeStyle;rounded=0;orthogonalLoop=1;jettySize=auto;html=1;exitX=0;exitY=0;exitDx=0;exitDy=0;entryX=0;entryY=0.5;entryDx=0;entryDy=0;" edge="1" parent="WIyWlLk6GJQsqaUBKTNV-1" source="zFXSnFFcsLOcTapgdQPT-10" target="8M8Ricd8YmC17zNcSAAh-9">
          <mxGeometry relative="1" as="geometry">
            <Array as="points">
              <mxPoint x="60" y="640" />
              <mxPoint x="60" y="550" />
              <mxPoint x="-200" y="550" />
              <mxPoint x="-200" y="80" />
            </Array>
          </mxGeometry>
        </mxCell>
        <mxCell id="zFXSnFFcsLOcTapgdQPT-10" value="Cell Room Second Floor (DEFEAT)" style="rounded=0;whiteSpace=wrap;html=1;fillColor=#f8cecc;strokeColor=#b85450;" parent="WIyWlLk6GJQsqaUBKTNV-1" vertex="1">
          <mxGeometry x="40" y="640" width="120" height="40" as="geometry" />
        </mxCell>
        <mxCell id="zFXSnFFcsLOcTapgdQPT-11" value="" style="endArrow=classic;html=1;rounded=0;exitX=0.5;exitY=1;exitDx=0;exitDy=0;" parent="WIyWlLk6GJQsqaUBKTNV-1" source="zFXSnFFcsLOcTapgdQPT-9" target="zFXSnFFcsLOcTapgdQPT-10" edge="1">
          <mxGeometry width="50" height="50" relative="1" as="geometry">
            <mxPoint x="190" y="620" as="sourcePoint" />
            <mxPoint x="240" y="570" as="targetPoint" />
          </mxGeometry>
        </mxCell>
        <mxCell id="zFXSnFFcsLOcTapgdQPT-12" value="&lt;h1&gt;Cell Room SF:&lt;/h1&gt;&lt;div&gt;The fist combat room where the player choices from environmental object what to use as a weapon as well as an extra option for hiding.&lt;/div&gt;&lt;div&gt;&lt;br&gt;&lt;/div&gt;&lt;div&gt;&lt;br&gt;&lt;/div&gt;" style="text;html=1;spacing=5;spacingTop=-20;whiteSpace=wrap;overflow=hidden;rounded=0;" parent="WIyWlLk6GJQsqaUBKTNV-1" vertex="1">
          <mxGeometry x="40" y="370" width="240" height="110" as="geometry" />
        </mxCell>
        <mxCell id="zFXSnFFcsLOcTapgdQPT-13" value="" style="endArrow=classic;html=1;rounded=0;entryX=0;entryY=0;entryDx=0;entryDy=0;exitX=1;exitY=1;exitDx=0;exitDy=0;" parent="WIyWlLk6GJQsqaUBKTNV-1" source="BrZVJdfoGeoX7WeHranQ-9" target="zFXSnFFcsLOcTapgdQPT-6" edge="1">
          <mxGeometry width="50" height="50" relative="1" as="geometry">
            <mxPoint x="210" y="600" as="sourcePoint" />
            <mxPoint x="260" y="550" as="targetPoint" />
          </mxGeometry>
        </mxCell>
        <mxCell id="zFXSnFFcsLOcTapgdQPT-24" value="" style="endArrow=classic;html=1;rounded=0;exitX=0.5;exitY=1;exitDx=0;exitDy=0;entryX=0.5;entryY=0;entryDx=0;entryDy=0;" parent="WIyWlLk6GJQsqaUBKTNV-1" source="zFXSnFFcsLOcTapgdQPT-6" target="zFXSnFFcsLOcTapgdQPT-28" edge="1">
          <mxGeometry width="50" height="50" relative="1" as="geometry">
            <mxPoint x="400" y="840" as="sourcePoint" />
            <mxPoint x="400" y="1000" as="targetPoint" />
          </mxGeometry>
        </mxCell>
        <mxCell id="zFXSnFFcsLOcTapgdQPT-28" value="Cave Warehouse." style="rounded=0;whiteSpace=wrap;html=1;fillColor=#b0e3e6;strokeColor=#0e8088;" parent="WIyWlLk6GJQsqaUBKTNV-1" vertex="1">
          <mxGeometry x="340" y="800" width="120" height="40" as="geometry" />
        </mxCell>
        <mxCell id="X47OzceBkSEqD6uy3NSN-3" value="&lt;h1&gt;The Cavewarehouse:&amp;nbsp;&lt;/h1&gt;&lt;p&gt;In this warehouse is carved straight into the stone you find your gear and enquire about it allowing the player more options such as to fight head-on.&lt;/p&gt;" style="text;html=1;spacing=5;spacingTop=-20;whiteSpace=wrap;overflow=hidden;rounded=0;" parent="WIyWlLk6GJQsqaUBKTNV-1" vertex="1">
          <mxGeometry x="460" y="800" width="305" height="130" as="geometry" />
        </mxCell>
        <mxCell id="BrZVJdfoGeoX7WeHranQ-5" value="&lt;h1&gt;Defeat:&lt;/h1&gt;&lt;p&gt;By picking to hide in the last room this will result in defeat for the player regardless of class.&lt;/p&gt;" style="text;html=1;spacing=5;spacingTop=-20;whiteSpace=wrap;overflow=hidden;rounded=0;" vertex="1" parent="WIyWlLk6GJQsqaUBKTNV-1">
          <mxGeometry x="-150" y="640" width="190" height="120" as="geometry" />
        </mxCell>
        <mxCell id="BrZVJdfoGeoX7WeHranQ-9" value="Outcome" style="rounded=0;whiteSpace=wrap;html=1;fillColor=#d5e8d4;strokeColor=#82b366;" vertex="1" parent="WIyWlLk6GJQsqaUBKTNV-1">
          <mxGeometry x="200" y="560" width="120" height="40" as="geometry" />
        </mxCell>
        <mxCell id="BrZVJdfoGeoX7WeHranQ-10" value="" style="endArrow=classic;html=1;rounded=0;exitX=1;exitY=1;exitDx=0;exitDy=0;entryX=0;entryY=0;entryDx=0;entryDy=0;" edge="1" parent="WIyWlLk6GJQsqaUBKTNV-1" source="zFXSnFFcsLOcTapgdQPT-9" target="BrZVJdfoGeoX7WeHranQ-9">
          <mxGeometry width="50" height="50" relative="1" as="geometry">
            <mxPoint x="280" y="740" as="sourcePoint" />
            <mxPoint x="330" y="690" as="targetPoint" />
          </mxGeometry>
        </mxCell>
        <mxCell id="BrZVJdfoGeoX7WeHranQ-16" value="" style="endArrow=classic;html=1;rounded=0;exitX=0.5;exitY=1;exitDx=0;exitDy=0;" edge="1" parent="WIyWlLk6GJQsqaUBKTNV-1" source="zFXSnFFcsLOcTapgdQPT-28" target="BrZVJdfoGeoX7WeHranQ-17">
          <mxGeometry width="50" height="50" relative="1" as="geometry">
            <mxPoint x="380" y="950" as="sourcePoint" />
            <mxPoint x="400" y="1000" as="targetPoint" />
          </mxGeometry>
        </mxCell>
        <mxCell id="BrZVJdfoGeoX7WeHranQ-17" value="Hall way One (return from warehouse)" style="rounded=0;whiteSpace=wrap;html=1;fillColor=#d5e8d4;strokeColor=#82b366;" vertex="1" parent="WIyWlLk6GJQsqaUBKTNV-1">
          <mxGeometry x="340" y="960" width="120" height="40" as="geometry" />
        </mxCell>
        <mxCell id="BrZVJdfoGeoX7WeHranQ-18" value="&lt;h1&gt;Hallway One (return from the warehouse)&lt;br&gt;&lt;/h1&gt;&lt;p&gt;After getting the gear from the warehouse in the wall the player will be told that they are back in Hallway One.&lt;/p&gt;&lt;p&gt;The player will be informed that there is a lot of noise coming from the Cell room they escaped.&lt;/p&gt;" style="text;html=1;spacing=5;spacingTop=-20;whiteSpace=wrap;overflow=hidden;rounded=0;" vertex="1" parent="WIyWlLk6GJQsqaUBKTNV-1">
          <mxGeometry x="460" y="960" width="300" height="170" as="geometry" />
        </mxCell>
        <mxCell id="BrZVJdfoGeoX7WeHranQ-19" value="" style="endArrow=classic;html=1;rounded=0;exitX=0.5;exitY=1;exitDx=0;exitDy=0;entryX=0.5;entryY=0;entryDx=0;entryDy=0;" edge="1" parent="WIyWlLk6GJQsqaUBKTNV-1" source="BrZVJdfoGeoX7WeHranQ-17" target="BrZVJdfoGeoX7WeHranQ-26">
          <mxGeometry width="50" height="50" relative="1" as="geometry">
            <mxPoint x="400" y="1020" as="sourcePoint" />
            <mxPoint x="400" y="1120" as="targetPoint" />
          </mxGeometry>
        </mxCell>
        <mxCell id="BrZVJdfoGeoX7WeHranQ-20" value="" style="endArrow=classic;html=1;rounded=0;exitX=0;exitY=0.5;exitDx=0;exitDy=0;" edge="1" parent="WIyWlLk6GJQsqaUBKTNV-1" source="BrZVJdfoGeoX7WeHranQ-17" target="BrZVJdfoGeoX7WeHranQ-21">
          <mxGeometry width="50" height="50" relative="1" as="geometry">
            <mxPoint x="160" y="960" as="sourcePoint" />
            <mxPoint x="220" y="980" as="targetPoint" />
          </mxGeometry>
        </mxCell>
        <mxCell id="BrZVJdfoGeoX7WeHranQ-21" value="Return to Cell room One Door" style="rounded=0;whiteSpace=wrap;html=1;fillColor=#ffcccc;strokeColor=#36393d;" vertex="1" parent="WIyWlLk6GJQsqaUBKTNV-1">
          <mxGeometry x="80" y="960" width="120" height="40" as="geometry" />
        </mxCell>
        <mxCell id="BrZVJdfoGeoX7WeHranQ-22" value="&lt;h1&gt;Return to the cell room one door:&lt;/h1&gt;&lt;p&gt;The player will creep up to the door of cell room one and looking through the broken view slit the player will see 3 beast men that are roughly grabbing people and moster alike out of the cells in the walls.&lt;/p&gt;" style="text;html=1;spacing=5;spacingTop=-20;whiteSpace=wrap;overflow=hidden;rounded=0;" vertex="1" parent="WIyWlLk6GJQsqaUBKTNV-1">
          <mxGeometry x="-210" y="960" width="280" height="150" as="geometry" />
        </mxCell>
        <mxCell id="BrZVJdfoGeoX7WeHranQ-26" value="Hallway Two Split" style="rounded=0;whiteSpace=wrap;html=1;fillColor=#cdeb8b;strokeColor=#36393d;" vertex="1" parent="WIyWlLk6GJQsqaUBKTNV-1">
          <mxGeometry x="340" y="1160" width="120" height="40" as="geometry" />
        </mxCell>
        <mxCell id="BrZVJdfoGeoX7WeHranQ-27" value="" style="endArrow=classic;html=1;rounded=0;exitX=1;exitY=1;exitDx=0;exitDy=0;entryX=0;entryY=0;entryDx=0;entryDy=0;" edge="1" parent="WIyWlLk6GJQsqaUBKTNV-1" source="BrZVJdfoGeoX7WeHranQ-21" target="BrZVJdfoGeoX7WeHranQ-26">
          <mxGeometry width="50" height="50" relative="1" as="geometry">
            <mxPoint x="200" y="1060" as="sourcePoint" />
            <mxPoint x="250" y="1010" as="targetPoint" />
          </mxGeometry>
        </mxCell>
        <mxCell id="BrZVJdfoGeoX7WeHranQ-28" value="" style="endArrow=classic;html=1;rounded=0;exitX=0.5;exitY=1;exitDx=0;exitDy=0;entryX=0.5;entryY=0;entryDx=0;entryDy=0;" edge="1" parent="WIyWlLk6GJQsqaUBKTNV-1" source="BrZVJdfoGeoX7WeHranQ-21" target="BrZVJdfoGeoX7WeHranQ-29">
          <mxGeometry width="50" height="50" relative="1" as="geometry">
            <mxPoint x="100" y="1110" as="sourcePoint" />
            <mxPoint x="140" y="1120" as="targetPoint" />
          </mxGeometry>
        </mxCell>
        <mxCell id="BrZVJdfoGeoX7WeHranQ-29" value="Entering cell room (Defeat)" style="rounded=0;whiteSpace=wrap;html=1;fillColor=#ffcccc;strokeColor=#36393d;" vertex="1" parent="WIyWlLk6GJQsqaUBKTNV-1">
          <mxGeometry x="80" y="1160" width="120" height="40" as="geometry" />
        </mxCell>
        <mxCell id="BrZVJdfoGeoX7WeHranQ-31" value="&lt;h1&gt;Hallway Two split:&lt;/h1&gt;&lt;p&gt;The hallway split&#39;s.&lt;/p&gt;&lt;p&gt;On the left is a hallway similar to hallway one with the same looking metal door at the end.&lt;/p&gt;&lt;p&gt;On the right there is a short hall way that lead to a spiral stair case build straight into the stone wall that looks well worn.&lt;/p&gt;" style="text;html=1;spacing=5;spacingTop=-20;whiteSpace=wrap;overflow=hidden;rounded=0;" vertex="1" parent="WIyWlLk6GJQsqaUBKTNV-1">
          <mxGeometry x="460" y="1160" width="220" height="190" as="geometry" />
        </mxCell>
        <mxCell id="BrZVJdfoGeoX7WeHranQ-32" value="" style="endArrow=classic;html=1;rounded=0;entryX=0.5;entryY=0;entryDx=0;entryDy=0;" edge="1" parent="WIyWlLk6GJQsqaUBKTNV-1" target="BrZVJdfoGeoX7WeHranQ-34">
          <mxGeometry width="50" height="50" relative="1" as="geometry">
            <mxPoint x="400" y="1200" as="sourcePoint" />
            <mxPoint x="140" y="1320" as="targetPoint" />
          </mxGeometry>
        </mxCell>
        <mxCell id="BrZVJdfoGeoX7WeHranQ-33" value="" style="endArrow=classic;html=1;rounded=0;exitX=0.5;exitY=1;exitDx=0;exitDy=0;entryX=0.5;entryY=0;entryDx=0;entryDy=0;" edge="1" parent="WIyWlLk6GJQsqaUBKTNV-1" source="BrZVJdfoGeoX7WeHranQ-26" target="BrZVJdfoGeoX7WeHranQ-35">
          <mxGeometry width="50" height="50" relative="1" as="geometry">
            <mxPoint x="375" y="1300" as="sourcePoint" />
            <mxPoint x="400" y="1330" as="targetPoint" />
          </mxGeometry>
        </mxCell>
        <mxCell id="BrZVJdfoGeoX7WeHranQ-34" value="Second Cell Room" style="rounded=0;whiteSpace=wrap;html=1;fillColor=#cdeb8b;strokeColor=#36393d;" vertex="1" parent="WIyWlLk6GJQsqaUBKTNV-1">
          <mxGeometry x="-40" y="1320" width="120" height="40" as="geometry" />
        </mxCell>
        <mxCell id="BrZVJdfoGeoX7WeHranQ-35" value="Ground Floor." style="rounded=0;whiteSpace=wrap;html=1;fillColor=#cdeb8b;strokeColor=#36393d;" vertex="1" parent="WIyWlLk6GJQsqaUBKTNV-1">
          <mxGeometry x="340" y="1360" width="120" height="40" as="geometry" />
        </mxCell>
        <mxCell id="BrZVJdfoGeoX7WeHranQ-36" value="&lt;h1&gt;The Second Cell Room:&lt;/h1&gt;&lt;p&gt;The player will get to the second cell room and check it realising that it is empty even the second-floor room for the cell room only has empty cages&lt;span style=&quot;background-color: initial;&quot;&gt;.&lt;/span&gt;&lt;/p&gt;&lt;p&gt;&lt;span style=&quot;background-color: initial;&quot;&gt;After examining the room the charter returns to the door and hears a noise outside the room and checks to see three beast men heading up the stairs with two dog-looking creatures.&lt;/span&gt;&lt;/p&gt;" style="text;html=1;spacing=5;spacingTop=-20;whiteSpace=wrap;overflow=hidden;rounded=0;" vertex="1" parent="WIyWlLk6GJQsqaUBKTNV-1">
          <mxGeometry x="-325" y="1320" width="280" height="170" as="geometry" />
        </mxCell>
        <mxCell id="BrZVJdfoGeoX7WeHranQ-37" value="&lt;h1&gt;Ground floor&lt;/h1&gt;&lt;p&gt;The player will climb the stair an find them self in a corner of a large room that appears to be a mansion&#39;s entrance hall with the stairs the player is on hid in the shadows under an another stair case leading to the upper floor.&lt;/p&gt;&lt;p&gt;The ground floor will be not heavily populated but will have one or two human looking people moving around sometime ordering beast men around then leavening with those beast men to one of the many rooms providing the player with a empty entrance hall.&lt;/p&gt;" style="text;html=1;spacing=5;spacingTop=-20;whiteSpace=wrap;overflow=hidden;rounded=0;" vertex="1" parent="WIyWlLk6GJQsqaUBKTNV-1">
          <mxGeometry x="460" y="1360" width="190" height="300" as="geometry" />
        </mxCell>
        <mxCell id="BrZVJdfoGeoX7WeHranQ-39" value="&lt;h1&gt;Entering cell room:&lt;/h1&gt;&lt;p&gt;The player will be destroy by three beast men as they set about fighting the player almost as soon they see them the player will defeat one but be defeated by the other two in the prolonged fight.&lt;/p&gt;" style="text;html=1;spacing=5;spacingTop=-20;whiteSpace=wrap;overflow=hidden;rounded=0;" vertex="1" parent="WIyWlLk6GJQsqaUBKTNV-1">
          <mxGeometry x="-200" y="1160" width="280" height="120" as="geometry" />
        </mxCell>
        <mxCell id="BrZVJdfoGeoX7WeHranQ-40" value="" style="endArrow=classic;html=1;rounded=0;exitX=0.5;exitY=1;exitDx=0;exitDy=0;entryX=0.5;entryY=0;entryDx=0;entryDy=0;" edge="1" parent="WIyWlLk6GJQsqaUBKTNV-1" source="BrZVJdfoGeoX7WeHranQ-35" target="BrZVJdfoGeoX7WeHranQ-44">
          <mxGeometry width="50" height="50" relative="1" as="geometry">
            <mxPoint x="340" y="1380" as="sourcePoint" />
            <mxPoint x="400" y="1520" as="targetPoint" />
          </mxGeometry>
        </mxCell>
        <mxCell id="BrZVJdfoGeoX7WeHranQ-44" value="" style="rounded=0;whiteSpace=wrap;html=1;" vertex="1" parent="WIyWlLk6GJQsqaUBKTNV-1">
          <mxGeometry x="340" y="1680" width="120" height="60" as="geometry" />
        </mxCell>
        <mxCell id="BrZVJdfoGeoX7WeHranQ-45" value="" style="endArrow=classic;html=1;rounded=0;exitX=0.5;exitY=1;exitDx=0;exitDy=0;entryX=0.5;entryY=0;entryDx=0;entryDy=0;" edge="1" parent="WIyWlLk6GJQsqaUBKTNV-1" source="BrZVJdfoGeoX7WeHranQ-34" target="BrZVJdfoGeoX7WeHranQ-46">
          <mxGeometry width="50" height="50" relative="1" as="geometry">
            <mxPoint x="30" y="1500" as="sourcePoint" />
            <mxPoint x="20" y="1520" as="targetPoint" />
          </mxGeometry>
        </mxCell>
        <mxCell id="BrZVJdfoGeoX7WeHranQ-46" value="Following The Beast Men" style="rounded=0;whiteSpace=wrap;html=1;fillColor=#cdeb8b;strokeColor=#36393d;" vertex="1" parent="WIyWlLk6GJQsqaUBKTNV-1">
          <mxGeometry x="-40" y="1400" width="120" height="40" as="geometry" />
        </mxCell>
        <mxCell id="BrZVJdfoGeoX7WeHranQ-49" value="Ground Floor." style="rounded=0;whiteSpace=wrap;html=1;fillColor=#cdeb8b;strokeColor=#36393d;" vertex="1" parent="WIyWlLk6GJQsqaUBKTNV-1">
          <mxGeometry x="-120" y="1560" width="120" height="40" as="geometry" />
        </mxCell>
        <mxCell id="BrZVJdfoGeoX7WeHranQ-50" value="" style="endArrow=classic;html=1;rounded=0;exitX=0.5;exitY=1;exitDx=0;exitDy=0;entryX=0.5;entryY=0;entryDx=0;entryDy=0;" edge="1" parent="WIyWlLk6GJQsqaUBKTNV-1" source="BrZVJdfoGeoX7WeHranQ-46" target="BrZVJdfoGeoX7WeHranQ-49">
          <mxGeometry width="50" height="50" relative="1" as="geometry">
            <mxPoint x="250" y="1550" as="sourcePoint" />
            <mxPoint x="300" y="1500" as="targetPoint" />
          </mxGeometry>
        </mxCell>
        <mxCell id="BrZVJdfoGeoX7WeHranQ-52" value="ESCAPE!" style="rounded=0;whiteSpace=wrap;html=1;fillColor=#e3c800;fontColor=#000000;strokeColor=#B09500;" vertex="1" parent="WIyWlLk6GJQsqaUBKTNV-1">
          <mxGeometry x="-120" y="1640" width="120" height="40" as="geometry" />
        </mxCell>
        <mxCell id="BrZVJdfoGeoX7WeHranQ-53" value="&lt;h1&gt;Empty ground floor and escape:&lt;/h1&gt;&lt;p&gt;In this section, the player gets to escape due to the three beastmen after getting to the ground floor one of the dog-like beasts attacks a human-looking person using a large bat-winged daemon to call in a language the player does not understand from the top of the large staircase causing all the people to get the injured human and leave in haste to one of the rooms to the side of the large hall with the bad daemon following soon after&lt;/p&gt;&lt;p&gt;&lt;br&gt;&lt;/p&gt;" style="text;html=1;spacing=5;spacingTop=-20;whiteSpace=wrap;overflow=hidden;rounded=0;" vertex="1" parent="WIyWlLk6GJQsqaUBKTNV-1">
          <mxGeometry y="1560" width="275" height="230" as="geometry" />
        </mxCell>
        <mxCell id="BrZVJdfoGeoX7WeHranQ-55" value="Wait ground floor" style="rounded=0;whiteSpace=wrap;html=1;fillColor=#fad9d5;strokeColor=#ae4132;" vertex="1" parent="WIyWlLk6GJQsqaUBKTNV-1">
          <mxGeometry x="-320" y="1560" width="120" height="40" as="geometry" />
        </mxCell>
        <mxCell id="BrZVJdfoGeoX7WeHranQ-57" value="" style="endArrow=classic;html=1;rounded=0;exitX=0.5;exitY=1;exitDx=0;exitDy=0;entryX=0.5;entryY=0;entryDx=0;entryDy=0;" edge="1" parent="WIyWlLk6GJQsqaUBKTNV-1" source="BrZVJdfoGeoX7WeHranQ-49" target="BrZVJdfoGeoX7WeHranQ-52">
          <mxGeometry width="50" height="50" relative="1" as="geometry">
            <mxPoint x="10" y="1690" as="sourcePoint" />
            <mxPoint x="60" y="1640" as="targetPoint" />
          </mxGeometry>
        </mxCell>
        <mxCell id="BrZVJdfoGeoX7WeHranQ-61" value="Defeat" style="rounded=0;whiteSpace=wrap;html=1;fillColor=#fad9d5;strokeColor=#ae4132;" vertex="1" parent="WIyWlLk6GJQsqaUBKTNV-1">
          <mxGeometry x="-320" y="1640" width="120" height="40" as="geometry" />
        </mxCell>
        <mxCell id="BrZVJdfoGeoX7WeHranQ-62" value="&lt;h1&gt;Waiting Ground Floor:&lt;/h1&gt;&lt;p&gt;If the player wait&#39;s at the stair&#39;s on the ground floor the bat daemon come storming out the room they took the injured human to and heads straight for the stair&#39;s you are hiding in but the player is informed that the daemon notices them and dashes at them catching them on the stairs knocking them out on the spot.&lt;/p&gt;" style="text;html=1;spacing=5;spacingTop=-20;whiteSpace=wrap;overflow=hidden;rounded=0;" vertex="1" parent="WIyWlLk6GJQsqaUBKTNV-1">
          <mxGeometry x="-510" y="1560" width="190" height="230" as="geometry" />
        </mxCell>
        <mxCell id="BrZVJdfoGeoX7WeHranQ-64" value="&lt;h1&gt;Following Beast Men&lt;/h1&gt;&lt;p&gt;By waiting the player get to follow the beast men up to the ground floor unseen and see the incident that allows for their escape.&lt;/p&gt;" style="text;html=1;spacing=5;spacingTop=-20;whiteSpace=wrap;overflow=hidden;rounded=0;" vertex="1" parent="WIyWlLk6GJQsqaUBKTNV-1">
          <mxGeometry x="90" y="1400" width="220" height="140" as="geometry" />
        </mxCell>
        <mxCell id="BrZVJdfoGeoX7WeHranQ-70" value="" style="endArrow=classic;html=1;rounded=0;exitX=0;exitY=0.5;exitDx=0;exitDy=0;entryX=1;entryY=0.5;entryDx=0;entryDy=0;" edge="1" parent="WIyWlLk6GJQsqaUBKTNV-1" source="BrZVJdfoGeoX7WeHranQ-49" target="BrZVJdfoGeoX7WeHranQ-55">
          <mxGeometry width="50" height="50" relative="1" as="geometry">
            <mxPoint x="-190" y="1750" as="sourcePoint" />
            <mxPoint x="-140" y="1700" as="targetPoint" />
          </mxGeometry>
        </mxCell>
        <mxCell id="BrZVJdfoGeoX7WeHranQ-71" value="" style="endArrow=classic;html=1;rounded=0;exitX=0.5;exitY=1;exitDx=0;exitDy=0;entryX=0.5;entryY=0;entryDx=0;entryDy=0;" edge="1" parent="WIyWlLk6GJQsqaUBKTNV-1" source="BrZVJdfoGeoX7WeHranQ-55" target="BrZVJdfoGeoX7WeHranQ-61">
          <mxGeometry width="50" height="50" relative="1" as="geometry">
            <mxPoint x="80" y="1600" as="sourcePoint" />
            <mxPoint x="130" y="1550" as="targetPoint" />
          </mxGeometry>
        </mxCell>
      </root>
    </mxGraphModel>
  </diagram>
</mxfile>
